<svg height="512" width="512" xmlns="http://www.w3.org/2000/svg" aria-hidden="true" class="text-gray-900 size-10"><g fill="currentColor"><path d="M442 370h-50c-8.284 0-15 6.716-15 15s6.716 15 15 15h50c8.284 0 15-6.716 15-15s-6.716-15-15-15z"/><path d="M477 310h-95l-36-27a14.997 14.997 0 0 0-15.708-1.416A14.998 14.998 0 0 0 322 295v99.257l-72-20.571v-17.714c31.545-17.252 54.166-48.856 59.022-85.971H325c24.813 0 45-20.187 45-45v-50C370 78.505 291.495 0 195 0S20 78.505 20 175v50c0 10.688 3.752 20.513 10 28.241V275c0 24.813 20.187 45 45 45h25.185A115.852 115.852 0 0 0 140 355.971v17.714l-78.351 22.386C25.351 406.442 0 440.051 0 477.801V497c0 8.284 6.716 15 15 15h360c8.284 0 15-6.716 15-15v-19.199c0-5.987-.644-11.961-1.895-17.801H477c19.299 0 35-15.701 35-35v-80c0-19.299-15.701-35-35-35zm-137-85c0 8.271-6.729 15-15 15h-15v-60h15c8.271 0 15 6.729 15 15zm-290 0v-30c0-8.271 6.729-15 15-15h15v60H65c-8.271 0-15-6.729-15-15zm25 65c-8.271 0-15-6.729-15-15v-5.284c1.643.182 3.309.284 5 .284h15.978a114.17 114.17 0 0 0 4.474 20zm7.745-140H65c-4.579 0-8.998.692-13.164 1.969C62.904 82.923 122.884 30 195 30s132.096 52.923 143.164 121.969A44.844 44.844 0 0 0 325 150h-17.745C295.809 98.57 249.827 60 195 60S94.191 98.57 82.745 150zm197.096 20h-18.273c-32.472 0-63-12.646-85.962-35.606a15.002 15.002 0 0 0-24.023 3.899c-8.269 16.538-23.601 27.776-41.359 30.854C113.245 125 150.101 90 195 90c45.19 0 82.242 35.451 84.841 80zm-162.27 120A84.47 84.47 0 0 1 110 255v-55.533c22.994-2.525 43.735-13.938 58.092-31.696C194.66 188.667 227.244 200 261.568 200H280v55c0 46.869-38.131 85-85 85-20.815 0-39.896-7.533-54.69-20H175c8.284 0 15-6.716 15-15s-6.716-15-15-15zM180 482H30v-4.199c0-24.427 16.403-46.174 39.89-52.884l79.633-22.752L180 440.261zm-10-102.262v-12.483c8.052 1.792 16.416 2.745 25 2.745s16.948-.953 25-2.745v12.483l-25 31.25zM360 482H210v-41.739l30.477-38.096 79.633 22.752c.638.182 1.27.389 1.903.595C322.289 444.575 337.873 460 357 460h.012c1.952 5.715 2.988 11.742 2.988 17.801zm122-57c0 2.757-2.243 5-5 5H357c-2.757 0-5-2.243-5-5V325l16 12c2.597 1.947 5.754 3 9 3h100c2.757 0 5 2.243 5 5z"/></g></svg>