<svg height="512" width="512" xmlns="http://www.w3.org/2000/svg" aria-hidden="true" class="text-gray-900 size-10"><g fill="currentColor"><path d="m335.263 156.637 12.916-12.908c5.859-5.856 5.862-15.354.007-21.214-5.856-5.858-15.354-5.861-21.214-.007l-13.39 13.382c-16.47-13.474-35.207-24.279-55.55-31.732V65.537h8.261c8.284 0 15-6.716 15-15s-6.716-15-15-15H117.8c-8.284 0-15 6.716-15 15s6.716 15 15 15h8.356v38.622c-20.354 7.457-39.101 18.269-55.577 31.753l-13.41-13.402c-5.86-5.857-15.358-5.854-21.213.006-5.856 5.859-5.854 15.357.006 21.213l12.941 12.933C18.51 190.633 0 235.436 0 284.484c0 105.857 86.173 191.979 192.094 191.979s192.094-86.121 192.094-191.979c0-49.06-18.519-93.873-48.925-127.847zm-179.107-91.1h71.875V95.89c-11.646-2.212-23.657-3.384-35.938-3.384s-24.291 1.172-35.938 3.384V65.537zm35.938 380.926C102.715 446.463 30 373.8 30 284.484s72.715-161.979 162.094-161.979 162.094 72.663 162.094 161.979-72.715 161.979-162.094 161.979zM427.785 353.112H497c8.284 0 15-6.716 15-15s-6.716-15-15-15h-69.215c-8.284 0-15 6.716-15 15s6.716 15 15 15zM497 384.787h-97.169c-8.284 0-15 6.716-15 15s6.716 15 15 15H497c8.284 0 15-6.716 15-15s-6.716-15-15-15zM497 446.463H362.243c-8.284 0-15 6.716-15 15s6.716 15 15 15H497c8.284 0 15-6.716 15-15s-6.716-15-15-15z"/><path d="M192.094 158.97c-69.248 0-125.586 56.306-125.586 125.515S122.846 410 192.094 410 317.68 353.693 317.68 284.484 261.342 158.97 192.094 158.97zm0 221.029c-52.706 0-95.586-42.848-95.586-95.515s42.88-95.515 95.586-95.515 95.586 42.848 95.586 95.515-42.88 95.515-95.586 95.515z"/><path d="m216.777 248.939-39.298 39.273-10.069-10.064c-5.859-5.855-15.357-5.854-21.213.007-5.856 5.859-5.854 15.357.006 21.213l20.673 20.66a14.95 14.95 0 0 0 10.604 4.391 14.96 14.96 0 0 0 10.604-4.39l49.901-49.869c5.859-5.856 5.862-15.354.007-21.214-5.857-5.858-15.354-5.861-21.215-.007z"/></g></svg>